<svg width="1440" height="1782" viewBox="0 0 1440 1782" fill="none" xmlns="http://www.w3.org/2000/svg">
<g clip-path="url(#clip0)">
<path opacity="0.071" d="M833.628 595.385L833.627 595.384C748.781 510.538 748.781 372.976 833.627 288.13L1227.13 -105.373C1311.98 -190.219 1449.54 -190.219 1534.38 -105.373L1534.38 -105.372C1619.23 -20.5261 1619.23 117.036 1534.38 201.882L1140.88 595.385C1056.04 680.231 918.474 680.231 833.628 595.385Z" fill="#F25F3A"/>
<path opacity="0.071" d="M-442.631 1876.82L-442.632 1876.82C-526.23 1793.22 -526.23 1657.68 -442.632 1574.08L-54.917 1186.37C28.6811 1102.77 164.22 1102.77 247.818 1186.37L247.819 1186.37C331.417 1269.97 331.417 1405.51 247.819 1489.1L-139.896 1876.82C-223.494 1960.42 -359.033 1960.42 -442.631 1876.82Z" fill="#F25F3A"/>
</g>
<defs>
<clipPath id="clip0">
<rect width="1440" height="1782" fill="white"/>
</clipPath>
</defs>
</svg>
