<svg width="375" height="1205" viewBox="0 0 375 1205" fill="none" xmlns="http://www.w3.org/2000/svg">
<g clip-path="url(#clip0)">
<path opacity="0.071" d="M482.923 -85.4091L482.923 -85.4085C530.185 -38.138 530.185 38.5027 482.923 85.7733L263.728 305.007C216.466 352.278 139.839 352.278 92.5764 305.007L92.5758 305.007C45.3136 257.736 45.3136 181.095 92.5759 133.825L311.771 -85.4091C359.033 -132.68 435.66 -132.68 482.923 -85.4091Z" fill="#F25F3A"/>
<path opacity="0.071" d="M532.357 534.01L532.357 534.01C564.583 566.241 564.583 618.498 532.357 650.729L382.901 800.212C350.675 832.443 298.427 832.443 266.202 800.212L266.202 800.212C233.976 767.981 233.976 715.724 266.202 683.493L415.658 534.01C447.884 501.779 500.132 501.779 532.357 534.01Z" fill="#F25F3A"/>
</g>
<defs>
<clipPath id="clip0">
<rect width="375" height="1205" fill="white" transform="translate(375 1205) rotate(-180)"/>
</clipPath>
</defs>
</svg>
